<svg xmlns="http://www.w3.org/2000/svg" viewBox="0 0 100 100" width="50" height="50">
  <path d="M50,88.87l18.92-58.21H31.08L50,88.87z" fill="#E24329"/>
  <path d="M50,88.87l-18.92-58.21H11.74L50,88.87z" fill="#FC6D26"/>
  <path d="M11.74,30.66L4.8,51.45a3.59,3.59,0,0,0,1.3,4L50,88.87,11.74,30.66z" fill="#FCA326"/>
  <path d="M11.74,30.66h19.34L24.1,11.13a1.8,1.8,0,0,0-3.42,0L11.74,30.66z" fill="#E24329"/>
  <path d="M50,88.87l18.92-58.21H88.26L50,88.87z" fill="#FC6D26"/>
  <path d="M88.26,30.66l6.94,20.79a3.59,3.59,0,0,1-1.3,4L50,88.87,88.26,30.66z" fill="#FCA326"/>
  <path d="M88.26,30.66H68.92L75.9,11.13a1.8,1.8,0,0,1,3.42,0l8.94,19.53z" fill="#E24329"/>
</svg>