<svg xmlns="http://www.w3.org/2000/svg" viewBox="0 0 100 100" width="50" height="50">
  <path d="M16.74,71.11 L33.33,42.22 L83.33,42.22 L66.67,71.11 L16.74,71.11 Z" fill="#3777E3"/>
  <path d="M33.33,42.22 L50,13.33 L100,13.33 L83.33,42.22 L33.33,42.22 Z" fill="#FFCF63"/>
  <path d="M16.74,71.11 L33.33,42.22 L50,71.11 L33.33,100 L0,100 L16.74,71.11 Z" fill="#11A861"/>
  <path d="M50,13.33 L33.33,42.22 L16.74,71.11 L0,42.22 L33.33,42.22 L50,13.33 Z" fill="#4285F4"/>
  <path d="M83.33,42.22 L100,13.33 L100,71.11 L66.67,71.11 L83.33,42.22 Z" fill="#E94335"/>
  <path d="M50,71.11 L33.33,42.22 L83.33,42.22 L66.67,71.11 L50,71.11 Z" fill="#37A063"/>
</svg>