<svg xmlns="http://www.w3.org/2000/svg" viewBox="0 0 100 100" width="50" height="50">
  <defs>
    <linearGradient id="jira-gradient" x1="50%" y1="0%" x2="50%" y2="100%">
      <stop offset="0%" stop-color="#0052CC"/>
      <stop offset="100%" stop-color="#2684FF"/>
    </linearGradient>
  </defs>
  <path d="M95.47,47.95l-23.2-23.2L50,2.48,27.73,24.75l-23.2,23.2a3.86,3.86,0,0,0,0,5.46L27.73,76.61,50,98.88,72.27,76.61l23.2-23.2A3.86,3.86,0,0,0,95.47,47.95ZM50,67.21,32.79,50,50,32.79,67.21,50Z" fill="url(#jira-gradient)"/>
  <path d="M50,32.79a24.81,24.81,0,0,1,0-30.31L27.73,24.75,44.54,41.56A17.24,17.24,0,0,0,50,32.79Z" fill="#2684FF"/>
  <path d="M67.21,50,50,67.21a24.81,24.81,0,0,1,0,30.31L72.27,76.61,55.46,59.8A17.24,17.24,0,0,0,50,67.21Z" fill="#0052CC"/>
</svg>