<svg xmlns="http://www.w3.org/2000/svg" viewBox="0 0 100 100" width="50" height="50">
  <path d="M65.95,37.27a16.17,16.17,0,0,0-12.2-5.6A16.61,16.61,0,0,0,37.27,48.25a11.21,11.21,0,0,0-5.6-1.4,11.67,11.67,0,1,0,0,23.34H65.95a14,14,0,0,0,0-28Z" fill="#00A1E0"/>
  <path d="M39.5,43.5a9.5,9.5,0,0,1,9.5-9.5,9.37,9.37,0,0,1,7.9,4.3,13.5,13.5,0,0,0-6.8,11.7,13.8,13.8,0,0,0,.2,2.3,9.5,9.5,0,0,1-10.8-8.8Z" fill="#FFFFFF"/>
  <path d="M59.5,50a7,7,0,0,1,7-7,6.92,6.92,0,0,1,6.1,3.6,11.49,11.49,0,0,0-5.6,9.8,11.16,11.16,0,0,0,.1,1.6,7,7,0,0,1-7.6-8Z" fill="#FFFFFF"/>
  <path d="M43.5,59.5a5.5,5.5,0,0,1,5.5-5.5,5.38,5.38,0,0,1,4.6,2.5,8.5,8.5,0,0,0-4.1,7.2,8.09,8.09,0,0,0,.1,1.3,5.5,5.5,0,0,1-6.1-5.5Z" fill="#FFFFFF"/>
</svg>