<svg xmlns="http://www.w3.org/2000/svg" viewBox="0 0 100 100" width="50" height="50">
  <path d="M21.9,59.6c0,5.8-4.7,10.5-10.5,10.5S0.9,65.4,0.9,59.6c0-5.8,4.7-10.5,10.5-10.5h10.5V59.6z" fill="#E01E5A"/>
  <path d="M27.2,59.6c0-5.8,4.7-10.5,10.5-10.5s10.5,4.7,10.5,10.5v26.3c0,5.8-4.7,10.5-10.5,10.5s-10.5-4.7-10.5-10.5V59.6z" fill="#E01E5A"/>
  <path d="M37.7,21.9c-5.8,0-10.5-4.7-10.5-10.5S31.9,0.9,37.7,0.9s10.5,4.7,10.5,10.5v10.5H37.7z" fill="#36C5F0"/>
  <path d="M37.7,27.2c5.8,0,10.5,4.7,10.5,10.5s-4.7,10.5-10.5,10.5H11.4c-5.8,0-10.5-4.7-10.5-10.5s4.7-10.5,10.5-10.5H37.7z" fill="#36C5F0"/>
  <path d="M75.4,37.7c0-5.8,4.7-10.5,10.5-10.5s10.5,4.7,10.5,10.5s-4.7,10.5-10.5,10.5H75.4V37.7z" fill="#2EB67D"/>
  <path d="M70.1,37.7c0,5.8-4.7,10.5-10.5,10.5s-10.5-4.7-10.5-10.5V11.4c0-5.8,4.7-10.5,10.5-10.5s10.5,4.7,10.5,10.5V37.7z" fill="#2EB67D"/>
  <path d="M59.6,75.4c5.8,0,10.5,4.7,10.5,10.5s-4.7,10.5-10.5,10.5s-10.5-4.7-10.5-10.5V75.4H59.6z" fill="#ECB22E"/>
  <path d="M59.6,70.1c-5.8,0-10.5-4.7-10.5-10.5s4.7-10.5,10.5-10.5h26.3c5.8,0,10.5,4.7,10.5,10.5s-4.7,10.5-10.5,10.5H59.6z" fill="#ECB22E"/>
</svg>