<svg xmlns="http://www.w3.org/2000/svg" viewBox="0 0 100 100" width="50" height="50">
  <path d="M95.83,33.33H70.83V25a8.33,8.33,0,0,0-8.33-8.33H37.5A8.33,8.33,0,0,0,29.17,25v8.33H4.17A4.17,4.17,0,0,0,0,37.5V70.83A8.33,8.33,0,0,0,8.33,79.17H91.67A8.33,8.33,0,0,0,100,70.83V37.5A4.17,4.17,0,0,0,95.83,33.33Z" fill="#5059C9"/>
  <path d="M70.83,33.33V58.33a4.17,4.17,0,0,1-4.17,4.17H33.33a4.17,4.17,0,0,1-4.17-4.17V33.33H70.83Z" fill="#5059C9"/>
  <path d="M62.5,25a4.17,4.17,0,0,1-4.17,4.17H41.67A4.17,4.17,0,0,1,37.5,25V16.67A4.17,4.17,0,0,1,41.67,12.5h16.67A4.17,4.17,0,0,1,62.5,16.67V25Z" fill="#7B83EB"/>
  <circle cx="50" cy="45.83" r="12.5" fill="#FFFFFF"/>
  <path d="M54.17,45.83a4.17,4.17,0,0,1-8.33,0V37.5h8.33Z" fill="#7B83EB"/>
  <path d="M83.33,37.5a8.33,8.33,0,0,1,8.33,8.33v8.33a8.33,8.33,0,0,1-16.67,0V45.83A8.33,8.33,0,0,1,83.33,37.5Z" fill="#7B83EB"/>
  <circle cx="83.33" cy="41.67" r="4.17" fill="#FFFFFF"/>
</svg>